<svg xmlns="http://www.w3.org/2000/svg" xmlns:xlink="http://www.w3.org/1999/xlink" width="100" zoomAndPan="magnify" viewBox="0 0 75 74.999997" height="100" preserveAspectRatio="xMidYMid meet" version="1.0"><defs><clipPath id="0f8f903302"><path d="M 0 0 L 74.625 0 L 74.625 74.625 L 0 74.625 Z M 0 0 " clip-rule="nonzero"/></clipPath><clipPath id="6329a2ce04"><path d="M 37.3125 0 C 16.707031 0 0 16.707031 0 37.3125 C 0 57.917969 16.707031 74.625 37.3125 74.625 C 57.917969 74.625 74.625 57.917969 74.625 37.3125 C 74.625 16.707031 57.917969 0 37.3125 0 Z M 37.3125 0 " clip-rule="nonzero"/></clipPath><linearGradient x1="0" gradientTransform="matrix(0.291504, 0, 0, 0.291504, 0.0000015, -0.000001)" y1="128" x2="255.999986" gradientUnits="userSpaceOnUse" y2="128" id="ed6fd17d8c"><stop stop-opacity="1" stop-color="rgb(80.39856%, 100%, 84.698486%)" offset="0"/><stop stop-opacity="1" stop-color="rgb(80.311584%, 99.891663%, 84.757996%)" offset="0.0078125"/><stop stop-opacity="1" stop-color="rgb(80.136108%, 99.676514%, 84.87854%)" offset="0.015625"/><stop stop-opacity="1" stop-color="rgb(79.960632%, 99.461365%, 84.997559%)" offset="0.0234375"/><stop stop-opacity="1" stop-color="rgb(79.786682%, 99.246216%, 85.116577%)" offset="0.03125"/><stop stop-opacity="1" stop-color="rgb(79.611206%, 99.032593%, 85.237122%)" offset="0.0390625"/><stop stop-opacity="1" stop-color="rgb(79.43573%, 98.817444%, 85.35614%)" offset="0.046875"/><stop stop-opacity="1" stop-color="rgb(79.26178%, 98.602295%, 85.476685%)" offset="0.0546875"/><stop stop-opacity="1" stop-color="rgb(79.086304%, 98.387146%, 85.595703%)" offset="0.0625"/><stop stop-opacity="1" stop-color="rgb(78.910828%, 98.171997%, 85.714722%)" offset="0.0703125"/><stop stop-opacity="1" stop-color="rgb(78.736877%, 97.958374%, 85.835266%)" offset="0.078125"/><stop stop-opacity="1" stop-color="rgb(78.561401%, 97.743225%, 85.954285%)" offset="0.0859375"/><stop stop-opacity="1" stop-color="rgb(78.385925%, 97.528076%, 86.073303%)" offset="0.09375"/><stop stop-opacity="1" stop-color="rgb(78.211975%, 97.312927%, 86.193848%)" offset="0.101562"/><stop stop-opacity="1" stop-color="rgb(78.036499%, 97.097778%, 86.312866%)" offset="0.109375"/><stop stop-opacity="1" stop-color="rgb(77.861023%, 96.884155%, 86.431885%)" offset="0.117188"/><stop stop-opacity="1" stop-color="rgb(77.685547%, 96.669006%, 86.552429%)" offset="0.125"/><stop stop-opacity="1" stop-color="rgb(77.511597%, 96.453857%, 86.671448%)" offset="0.132812"/><stop stop-opacity="1" stop-color="rgb(77.336121%, 96.238708%, 86.790466%)" offset="0.140625"/><stop stop-opacity="1" stop-color="rgb(77.160645%, 96.02356%, 86.911011%)" offset="0.148438"/><stop stop-opacity="1" stop-color="rgb(76.986694%, 95.809937%, 87.030029%)" offset="0.15625"/><stop stop-opacity="1" stop-color="rgb(76.811218%, 95.594788%, 87.149048%)" offset="0.164062"/><stop stop-opacity="1" stop-color="rgb(76.635742%, 95.379639%, 87.269592%)" offset="0.171875"/><stop stop-opacity="1" stop-color="rgb(76.461792%, 95.16449%, 87.388611%)" offset="0.179687"/><stop stop-opacity="1" stop-color="rgb(76.286316%, 94.949341%, 87.507629%)" offset="0.1875"/><stop stop-opacity="1" stop-color="rgb(76.11084%, 94.735718%, 87.628174%)" offset="0.195312"/><stop stop-opacity="1" stop-color="rgb(75.93689%, 94.520569%, 87.747192%)" offset="0.203125"/><stop stop-opacity="1" stop-color="rgb(75.761414%, 94.30542%, 87.866211%)" offset="0.210937"/><stop stop-opacity="1" stop-color="rgb(75.585938%, 94.090271%, 87.986755%)" offset="0.21875"/><stop stop-opacity="1" stop-color="rgb(75.410461%, 93.875122%, 88.105774%)" offset="0.226562"/><stop stop-opacity="1" stop-color="rgb(75.236511%, 93.661499%, 88.224792%)" offset="0.234375"/><stop stop-opacity="1" stop-color="rgb(75.061035%, 93.44635%, 88.345337%)" offset="0.242187"/><stop stop-opacity="1" stop-color="rgb(74.885559%, 93.231201%, 88.464355%)" offset="0.25"/><stop stop-opacity="1" stop-color="rgb(74.711609%, 93.016052%, 88.583374%)" offset="0.257812"/><stop stop-opacity="1" stop-color="rgb(74.536133%, 92.800903%, 88.703918%)" offset="0.265625"/><stop stop-opacity="1" stop-color="rgb(74.360657%, 92.58728%, 88.822937%)" offset="0.273438"/><stop stop-opacity="1" stop-color="rgb(74.186707%, 92.372131%, 88.941956%)" offset="0.28125"/><stop stop-opacity="1" stop-color="rgb(74.01123%, 92.156982%, 89.0625%)" offset="0.289062"/><stop stop-opacity="1" stop-color="rgb(73.835754%, 91.941833%, 89.181519%)" offset="0.296875"/><stop stop-opacity="1" stop-color="rgb(73.661804%, 91.726685%, 89.300537%)" offset="0.304687"/><stop stop-opacity="1" stop-color="rgb(73.486328%, 91.513062%, 89.421082%)" offset="0.3125"/><stop stop-opacity="1" stop-color="rgb(73.310852%, 91.297913%, 89.5401%)" offset="0.320312"/><stop stop-opacity="1" stop-color="rgb(73.136902%, 91.082764%, 89.659119%)" offset="0.328125"/><stop stop-opacity="1" stop-color="rgb(72.961426%, 90.867615%, 89.779663%)" offset="0.335938"/><stop stop-opacity="1" stop-color="rgb(72.78595%, 90.652466%, 89.898682%)" offset="0.34375"/><stop stop-opacity="1" stop-color="rgb(72.610474%, 90.438843%, 90.0177%)" offset="0.351562"/><stop stop-opacity="1" stop-color="rgb(72.436523%, 90.223694%, 90.138245%)" offset="0.359375"/><stop stop-opacity="1" stop-color="rgb(72.261047%, 90.008545%, 90.257263%)" offset="0.367187"/><stop stop-opacity="1" stop-color="rgb(72.085571%, 89.793396%, 90.376282%)" offset="0.375"/><stop stop-opacity="1" stop-color="rgb(71.911621%, 89.578247%, 90.496826%)" offset="0.382812"/><stop stop-opacity="1" stop-color="rgb(71.736145%, 89.364624%, 90.615845%)" offset="0.390625"/><stop stop-opacity="1" stop-color="rgb(71.560669%, 89.149475%, 90.734863%)" offset="0.398438"/><stop stop-opacity="1" stop-color="rgb(71.386719%, 88.934326%, 90.855408%)" offset="0.40625"/><stop stop-opacity="1" stop-color="rgb(71.211243%, 88.719177%, 90.974426%)" offset="0.414062"/><stop stop-opacity="1" stop-color="rgb(71.035767%, 88.504028%, 91.093445%)" offset="0.421875"/><stop stop-opacity="1" stop-color="rgb(70.861816%, 88.290405%, 91.213989%)" offset="0.429687"/><stop stop-opacity="1" stop-color="rgb(70.68634%, 88.075256%, 91.333008%)" offset="0.4375"/><stop stop-opacity="1" stop-color="rgb(70.510864%, 87.860107%, 91.452026%)" offset="0.445312"/><stop stop-opacity="1" stop-color="rgb(70.336914%, 87.644958%, 91.572571%)" offset="0.453125"/><stop stop-opacity="1" stop-color="rgb(70.161438%, 87.42981%, 91.691589%)" offset="0.460938"/><stop stop-opacity="1" stop-color="rgb(69.985962%, 87.216187%, 91.810608%)" offset="0.46875"/><stop stop-opacity="1" stop-color="rgb(69.810486%, 87.001038%, 91.931152%)" offset="0.476562"/><stop stop-opacity="1" stop-color="rgb(69.636536%, 86.785889%, 92.050171%)" offset="0.484375"/><stop stop-opacity="1" stop-color="rgb(69.46106%, 86.57074%, 92.169189%)" offset="0.492188"/><stop stop-opacity="1" stop-color="rgb(69.285583%, 86.355591%, 92.289734%)" offset="0.5"/><stop stop-opacity="1" stop-color="rgb(69.111633%, 86.141968%, 92.408752%)" offset="0.507812"/><stop stop-opacity="1" stop-color="rgb(68.936157%, 85.926819%, 92.527771%)" offset="0.515625"/><stop stop-opacity="1" stop-color="rgb(68.760681%, 85.71167%, 92.648315%)" offset="0.523437"/><stop stop-opacity="1" stop-color="rgb(68.586731%, 85.496521%, 92.767334%)" offset="0.53125"/><stop stop-opacity="1" stop-color="rgb(68.411255%, 85.281372%, 92.886353%)" offset="0.539062"/><stop stop-opacity="1" stop-color="rgb(68.235779%, 85.067749%, 93.006897%)" offset="0.546875"/><stop stop-opacity="1" stop-color="rgb(68.061829%, 84.8526%, 93.125916%)" offset="0.554688"/><stop stop-opacity="1" stop-color="rgb(67.886353%, 84.637451%, 93.244934%)" offset="0.5625"/><stop stop-opacity="1" stop-color="rgb(67.710876%, 84.422302%, 93.365479%)" offset="0.570312"/><stop stop-opacity="1" stop-color="rgb(67.536926%, 84.207153%, 93.484497%)" offset="0.578125"/><stop stop-opacity="1" stop-color="rgb(67.36145%, 83.99353%, 93.603516%)" offset="0.585938"/><stop stop-opacity="1" stop-color="rgb(67.185974%, 83.778381%, 93.72406%)" offset="0.59375"/><stop stop-opacity="1" stop-color="rgb(67.010498%, 83.563232%, 93.843079%)" offset="0.601562"/><stop stop-opacity="1" stop-color="rgb(66.836548%, 83.348083%, 93.962097%)" offset="0.609375"/><stop stop-opacity="1" stop-color="rgb(66.661072%, 83.132935%, 94.082642%)" offset="0.617187"/><stop stop-opacity="1" stop-color="rgb(66.485596%, 82.919312%, 94.20166%)" offset="0.625"/><stop stop-opacity="1" stop-color="rgb(66.311646%, 82.704163%, 94.320679%)" offset="0.632812"/><stop stop-opacity="1" stop-color="rgb(66.136169%, 82.489014%, 94.441223%)" offset="0.640625"/><stop stop-opacity="1" stop-color="rgb(65.960693%, 82.273865%, 94.560242%)" offset="0.648438"/><stop stop-opacity="1" stop-color="rgb(65.786743%, 82.058716%, 94.67926%)" offset="0.65625"/><stop stop-opacity="1" stop-color="rgb(65.611267%, 81.845093%, 94.799805%)" offset="0.664062"/><stop stop-opacity="1" stop-color="rgb(65.435791%, 81.629944%, 94.918823%)" offset="0.671875"/><stop stop-opacity="1" stop-color="rgb(65.261841%, 81.414795%, 95.037842%)" offset="0.679687"/><stop stop-opacity="1" stop-color="rgb(65.086365%, 81.199646%, 95.158386%)" offset="0.6875"/><stop stop-opacity="1" stop-color="rgb(64.910889%, 80.984497%, 95.277405%)" offset="0.695312"/><stop stop-opacity="1" stop-color="rgb(64.736938%, 80.770874%, 95.396423%)" offset="0.703125"/><stop stop-opacity="1" stop-color="rgb(64.561462%, 80.555725%, 95.516968%)" offset="0.710937"/><stop stop-opacity="1" stop-color="rgb(64.385986%, 80.340576%, 95.635986%)" offset="0.71875"/><stop stop-opacity="1" stop-color="rgb(64.21051%, 80.125427%, 95.755005%)" offset="0.726562"/><stop stop-opacity="1" stop-color="rgb(64.03656%, 79.910278%, 95.875549%)" offset="0.734375"/><stop stop-opacity="1" stop-color="rgb(63.861084%, 79.696655%, 95.994568%)" offset="0.742187"/><stop stop-opacity="1" stop-color="rgb(63.685608%, 79.481506%, 96.113586%)" offset="0.75"/><stop stop-opacity="1" stop-color="rgb(63.511658%, 79.266357%, 96.234131%)" offset="0.757812"/><stop stop-opacity="1" stop-color="rgb(63.336182%, 79.051208%, 96.353149%)" offset="0.765625"/><stop stop-opacity="1" stop-color="rgb(63.160706%, 78.83606%, 96.472168%)" offset="0.773438"/><stop stop-opacity="1" stop-color="rgb(62.986755%, 78.622437%, 96.592712%)" offset="0.78125"/><stop stop-opacity="1" stop-color="rgb(62.811279%, 78.407288%, 96.711731%)" offset="0.789062"/><stop stop-opacity="1" stop-color="rgb(62.635803%, 78.192139%, 96.83075%)" offset="0.796875"/><stop stop-opacity="1" stop-color="rgb(62.461853%, 77.97699%, 96.951294%)" offset="0.804687"/><stop stop-opacity="1" stop-color="rgb(62.286377%, 77.761841%, 97.070312%)" offset="0.8125"/><stop stop-opacity="1" stop-color="rgb(62.110901%, 77.548218%, 97.189331%)" offset="0.820312"/><stop stop-opacity="1" stop-color="rgb(61.936951%, 77.333069%, 97.309875%)" offset="0.828125"/><stop stop-opacity="1" stop-color="rgb(61.761475%, 77.11792%, 97.428894%)" offset="0.835937"/><stop stop-opacity="1" stop-color="rgb(61.585999%, 76.902771%, 97.547913%)" offset="0.84375"/><stop stop-opacity="1" stop-color="rgb(61.410522%, 76.687622%, 97.668457%)" offset="0.851562"/><stop stop-opacity="1" stop-color="rgb(61.236572%, 76.473999%, 97.787476%)" offset="0.859375"/><stop stop-opacity="1" stop-color="rgb(61.061096%, 76.25885%, 97.906494%)" offset="0.867188"/><stop stop-opacity="1" stop-color="rgb(60.88562%, 76.043701%, 98.027039%)" offset="0.875"/><stop stop-opacity="1" stop-color="rgb(60.71167%, 75.828552%, 98.146057%)" offset="0.882812"/><stop stop-opacity="1" stop-color="rgb(60.536194%, 75.613403%, 98.265076%)" offset="0.890625"/><stop stop-opacity="1" stop-color="rgb(60.360718%, 75.39978%, 98.38562%)" offset="0.898438"/><stop stop-opacity="1" stop-color="rgb(60.186768%, 75.184631%, 98.504639%)" offset="0.90625"/><stop stop-opacity="1" stop-color="rgb(60.011292%, 74.969482%, 98.623657%)" offset="0.914062"/><stop stop-opacity="1" stop-color="rgb(59.835815%, 74.754333%, 98.744202%)" offset="0.921875"/><stop stop-opacity="1" stop-color="rgb(59.661865%, 74.539185%, 98.86322%)" offset="0.929688"/><stop stop-opacity="1" stop-color="rgb(59.486389%, 74.325562%, 98.982239%)" offset="0.9375"/><stop stop-opacity="1" stop-color="rgb(59.310913%, 74.110413%, 99.102783%)" offset="0.945312"/><stop stop-opacity="1" stop-color="rgb(59.136963%, 73.895264%, 99.221802%)" offset="0.953125"/><stop stop-opacity="1" stop-color="rgb(58.961487%, 73.680115%, 99.34082%)" offset="0.960937"/><stop stop-opacity="1" stop-color="rgb(58.786011%, 73.464966%, 99.461365%)" offset="0.96875"/><stop stop-opacity="1" stop-color="rgb(58.610535%, 73.251343%, 99.580383%)" offset="0.976562"/><stop stop-opacity="1" stop-color="rgb(58.436584%, 73.036194%, 99.699402%)" offset="0.984375"/><stop stop-opacity="1" stop-color="rgb(58.261108%, 72.821045%, 99.819946%)" offset="0.992188"/><stop stop-opacity="1" stop-color="rgb(58.085632%, 72.605896%, 99.938965%)" offset="1"/></linearGradient><clipPath id="e207d6cd02"><path d="M 22.84375 20.4375 L 52 20.4375 L 52 54.1875 L 22.84375 54.1875 Z M 22.84375 20.4375 " clip-rule="nonzero"/></clipPath></defs><g clip-path="url(#0f8f903302)"><g clip-path="url(#6329a2ce04)"><path fill="url(#ed6fd17d8c)" d="M 0 0 L 0 74.625 L 74.625 74.625 L 74.625 0 Z M 0 0 " fill-rule="nonzero"/></g></g><g clip-path="url(#e207d6cd02)"><path fill="#000000" d="M 26.621094 54.1875 L 42.464844 54.1875 C 42.785156 54.1875 43.101562 54.15625 43.414062 54.09375 C 43.726562 54.03125 44.03125 53.941406 44.328125 53.820312 C 44.625 53.699219 44.90625 53.550781 45.171875 53.375 C 45.4375 53.199219 45.683594 53 45.910156 52.773438 C 46.136719 52.550781 46.339844 52.308594 46.515625 52.042969 C 46.695312 51.78125 46.84375 51.503906 46.964844 51.210938 C 47.089844 50.917969 47.179688 50.617188 47.242188 50.308594 C 47.304688 49.996094 47.335938 49.683594 47.335938 49.367188 L 47.335938 43.304688 L 46.117188 43.996094 C 45.738281 44.214844 45.332031 44.359375 44.898438 44.429688 L 44.898438 49.367188 C 44.898438 49.6875 44.839844 49.992188 44.714844 50.289062 C 44.589844 50.582031 44.414062 50.84375 44.1875 51.070312 C 43.957031 51.296875 43.695312 51.472656 43.394531 51.59375 C 43.097656 51.714844 42.785156 51.777344 42.464844 51.777344 L 36.980469 51.777344 L 36.980469 38.519531 L 43.074219 38.519531 L 43.074219 40.867188 C 43.074219 40.972656 43.085938 41.078125 43.113281 41.179688 C 43.140625 41.28125 43.183594 41.378906 43.234375 41.46875 C 43.289062 41.5625 43.355469 41.644531 43.429688 41.71875 C 43.503906 41.792969 43.589844 41.859375 43.683594 41.910156 C 43.773438 41.964844 43.871094 42.003906 43.976562 42.03125 C 44.078125 42.058594 44.183594 42.074219 44.292969 42.074219 C 44.398438 42.074219 44.503906 42.058594 44.605469 42.03125 C 44.710938 42.003906 44.808594 41.964844 44.898438 41.910156 L 51.347656 38.230469 C 51.4375 38.175781 51.523438 38.113281 51.597656 38.035156 C 51.671875 37.960938 51.738281 37.878906 51.789062 37.789062 C 51.84375 37.695312 51.882812 37.597656 51.910156 37.496094 C 51.941406 37.394531 51.953125 37.292969 51.953125 37.1875 C 51.953125 37.082031 51.941406 36.976562 51.910156 36.875 C 51.882812 36.773438 51.84375 36.675781 51.789062 36.585938 C 51.738281 36.492188 51.671875 36.410156 51.597656 36.335938 C 51.523438 36.261719 51.4375 36.195312 51.347656 36.144531 L 44.898438 32.492188 C 44.808594 32.4375 44.710938 32.398438 44.605469 32.371094 C 44.503906 32.34375 44.398438 32.328125 44.292969 32.328125 C 44.183594 32.328125 44.078125 32.34375 43.976562 32.371094 C 43.871094 32.398438 43.773438 32.4375 43.683594 32.492188 C 43.589844 32.542969 43.503906 32.605469 43.429688 32.683594 C 43.355469 32.757812 43.289062 32.839844 43.234375 32.929688 C 43.183594 33.023438 43.140625 33.121094 43.113281 33.222656 C 43.085938 33.324219 43.074219 33.429688 43.074219 33.535156 L 43.074219 36.105469 L 36.980469 36.105469 L 36.980469 28.585938 C 36.980469 28.121094 36.855469 27.691406 36.605469 27.300781 C 36.355469 26.90625 36.019531 26.609375 35.597656 26.410156 L 28.449219 23.015625 C 28.300781 22.953125 28.148438 22.894531 27.992188 22.847656 L 42.464844 22.847656 C 42.785156 22.847656 43.097656 22.910156 43.394531 23.03125 C 43.695312 23.152344 43.957031 23.328125 44.1875 23.554688 C 44.414062 23.78125 44.589844 24.042969 44.714844 24.335938 C 44.839844 24.632812 44.898438 24.9375 44.898438 25.257812 L 44.898438 29.941406 C 45.332031 30.015625 45.738281 30.160156 46.117188 30.375 L 47.335938 31.070312 L 47.335938 25.257812 C 47.335938 24.941406 47.304688 24.628906 47.242188 24.316406 C 47.179688 24.007812 47.089844 23.707031 46.964844 23.414062 C 46.84375 23.121094 46.695312 22.84375 46.515625 22.582031 C 46.339844 22.316406 46.136719 22.074219 45.910156 21.851562 C 45.683594 21.625 45.4375 21.425781 45.171875 21.25 C 44.90625 21.074219 44.625 20.925781 44.328125 20.804688 C 44.03125 20.683594 43.726562 20.59375 43.414062 20.53125 C 43.101562 20.46875 42.785156 20.4375 42.464844 20.4375 L 27.839844 20.4375 C 27.519531 20.4375 27.203125 20.46875 26.890625 20.53125 C 26.574219 20.59375 26.269531 20.683594 25.976562 20.804688 C 25.679688 20.925781 25.398438 21.074219 25.132812 21.25 C 24.867188 21.425781 24.621094 21.625 24.394531 21.851562 C 24.167969 22.074219 23.964844 22.316406 23.789062 22.582031 C 23.609375 22.84375 23.460938 23.121094 23.335938 23.414062 C 23.214844 23.707031 23.121094 24.007812 23.058594 24.316406 C 22.996094 24.628906 22.964844 24.941406 22.964844 25.257812 L 22.964844 50.570312 C 22.964844 51.050781 23.058594 51.511719 23.246094 51.957031 C 23.429688 52.398438 23.695312 52.789062 24.039062 53.128906 C 24.378906 53.46875 24.773438 53.730469 25.222656 53.914062 C 25.671875 54.097656 26.136719 54.1875 26.621094 54.1875 Z M 26.621094 54.1875 " fill-opacity="1" fill-rule="nonzero"/></g></svg>